<?xml version="1.0" standalone="no"?>
<!DOCTYPE svg PUBLIC "-//W3C//DTD SVG 20010904//EN"
 "http://www.w3.org/TR/2001/REC-SVG-20010904/DTD/svg10.dtd">
<svg version="1.0" xmlns="http://www.w3.org/2000/svg"
 width="48.000000pt" height="48.000000pt" viewBox="0 0 48.000000 48.000000"
 preserveAspectRatio="xMidYMid meet">

<g transform="translate(0.000000,48.000000) scale(0.100000,-0.100000)"
fill="#000000" stroke="none">
<path d="M193 433 c-31 -12 -8 -23 47 -23 57 0 78 11 44 24 -18 7 -73 7 -91
-1z"/>
<path d="M92 213 l3 -158 145 0 145 0 3 158 3 157 -151 0 -151 0 3 -157z m125
65 l23 -21 23 21 c13 12 29 22 35 22 24 0 25 -31 2 -56 l-23 -24 21 -23 c12
-13 22 -29 22 -35 0 -24 -31 -25 -56 -2 l-24 23 -24 -23 c-25 -23 -56 -22 -56
2 0 6 10 22 22 35 l21 23 -23 24 c-23 25 -22 56 2 56 6 0 22 -10 35 -22z"/>
</g>
</svg>
